# xmcd
#
# Track frame offsets:
#	150
#	16050
#	33390
#	47955
#	65780
#	86635
#	103012
#	118162
#	138557
#	155577
#	169737
#	189175
#	206245
#	224990
#
# Disc length: 3233 seconds
#
# Revision: 0
# Processed by: cddbd v1.5.2PL0 Copyright (c) Steve Scherf et al.
# Submitted via: audiograbber 1.80
#
DISCID=d60c9f0e
DTITLE=Tchê Garotos - O som do povo
DYEAR=1900
DGENRE=
TTITLE0=O som do povo
TTITLE1=Homem é tudo igual
TTITLE2=É no batuque que eu vou
TTITLE3=Gaitaço.com
TTITLE4=Pétalas caídas
TTITLE5=Eu só quero uma vanera
TTITLE6=Pecado e paixão
TTITLE7=Sem você não dá
TTITLE8=O arrastão
TTITLE9=Éna palma da mão
TTITLE10=Meu segredo
TTITLE11=O relógio da matriz
TTITLE12=A vida é um jogo
TTITLE13=Gana de farra
EXTD=
EXTT0=
EXTT1=
EXTT2=
EXTT3=
EXTT4=
EXTT5=
EXTT6=
EXTT7=
EXTT8=
EXTT9=
EXTT10=
EXTT11=
EXTT12=
EXTT13=
PLAYORDER=
